<mxfile host="www.draw.io" modified="2019-12-04T09:20:55.499Z" agent="Mozilla/5.0 (Macintosh; Intel Mac OS X 10_14_6) AppleWebKit/537.36 (KHTML, like Gecko) Chrome/78.0.3904.108 Safari/537.36" etag="LJRt1-XcgCuMvpiGBPVY" version="12.3.6" type="github" pages="1">
  <diagram id="n-bRcWE0r8VkI2KVZlSZ" name="第 1 页">
    <mxGraphModel dx="893" dy="1760" grid="1" gridSize="10" guides="1" tooltips="1" connect="1" arrows="1" fold="1" page="1" pageScale="1" pageWidth="827" pageHeight="1169" math="0" shadow="0">
      <root>
        <mxCell id="0"/>
        <mxCell id="1" parent="0"/>
        <mxCell id="XVNO729LVndD_g4eHp7l-1" value="办公电脑" style="shape=mxgraph.cisco.computers_and_peripherals.pc;html=1;pointerEvents=1;dashed=0;fillColor=#dae8fc;strokeColor=#6c8ebf;strokeWidth=2;verticalLabelPosition=bottom;verticalAlign=top;align=center;outlineConnect=0;" parent="1" vertex="1">
          <mxGeometry x="129" y="327.5" width="78" height="70" as="geometry"/>
        </mxCell>
        <mxCell id="XVNO729LVndD_g4eHp7l-2" value="办公电脑" style="shape=mxgraph.cisco.computers_and_peripherals.pc;html=1;pointerEvents=1;dashed=0;fillColor=#dae8fc;strokeColor=#6c8ebf;strokeWidth=2;verticalLabelPosition=bottom;verticalAlign=top;align=center;outlineConnect=0;" parent="1" vertex="1">
          <mxGeometry x="128" y="457.5" width="78" height="70" as="geometry"/>
        </mxCell>
        <mxCell id="XVNO729LVndD_g4eHp7l-4" value="手机客户端" style="shape=mxgraph.cisco.modems_and_phones.cell_phone;html=1;pointerEvents=1;dashed=0;fillColor=#d5e8d4;strokeColor=#82b366;strokeWidth=2;verticalLabelPosition=bottom;verticalAlign=top;align=center;outlineConnect=0;" parent="1" vertex="1">
          <mxGeometry x="447.5" y="640" width="34" height="58" as="geometry"/>
        </mxCell>
        <mxCell id="XVNO729LVndD_g4eHp7l-5" value="Web应用服务器" style="shape=mxgraph.cisco.misc.hp_mini;html=1;pointerEvents=1;dashed=0;fillColor=#036897;strokeColor=#ffffff;strokeWidth=2;verticalLabelPosition=bottom;verticalAlign=top;align=center;outlineConnect=0;" parent="1" vertex="1">
          <mxGeometry x="460" y="337.5" width="70" height="120" as="geometry"/>
        </mxCell>
        <mxCell id="XVNO729LVndD_g4eHp7l-6" value="交换机/路由" style="shape=mxgraph.cisco.routers.content_service_router;html=1;pointerEvents=1;dashed=0;fillColor=#036897;strokeColor=#ffffff;strokeWidth=2;verticalLabelPosition=bottom;verticalAlign=top;align=center;outlineConnect=0;" parent="1" vertex="1">
          <mxGeometry x="580" y="75" width="78" height="53" as="geometry"/>
        </mxCell>
        <mxCell id="XVNO729LVndD_g4eHp7l-7" value="防火墙" style="shape=mxgraph.cisco.security.firewall;html=1;pointerEvents=1;dashed=0;fillColor=#036897;strokeColor=#ffffff;strokeWidth=2;verticalLabelPosition=bottom;verticalAlign=top;align=center;outlineConnect=0;" parent="1" vertex="1">
          <mxGeometry x="413" y="54.5" width="29" height="67" as="geometry"/>
        </mxCell>
        <mxCell id="XVNO729LVndD_g4eHp7l-8" value="HDFS 文件系统&lt;br&gt;" style="shape=mxgraph.cisco.servers.file_server;html=1;pointerEvents=1;dashed=0;fillColor=#036897;strokeColor=#ffffff;strokeWidth=2;verticalLabelPosition=bottom;verticalAlign=top;align=center;outlineConnect=0;" parent="1" vertex="1">
          <mxGeometry x="460" y="172" width="43" height="58" as="geometry"/>
        </mxCell>
        <mxCell id="XVNO729LVndD_g4eHp7l-9" value="HDFS 文件系统&lt;br&gt;" style="shape=mxgraph.cisco.servers.file_server;html=1;pointerEvents=1;dashed=0;fillColor=#036897;strokeColor=#ffffff;strokeWidth=2;verticalLabelPosition=bottom;verticalAlign=top;align=center;outlineConnect=0;" parent="1" vertex="1">
          <mxGeometry x="650" y="172" width="43" height="58" as="geometry"/>
        </mxCell>
        <mxCell id="XVNO729LVndD_g4eHp7l-10" value="HDFS 文件系统&lt;br&gt;" style="shape=mxgraph.cisco.servers.file_server;html=1;pointerEvents=1;dashed=0;fillColor=#036897;strokeColor=#ffffff;strokeWidth=2;verticalLabelPosition=bottom;verticalAlign=top;align=center;outlineConnect=0;" parent="1" vertex="1">
          <mxGeometry x="550" y="172" width="43" height="58" as="geometry"/>
        </mxCell>
        <mxCell id="kT1cKuFMZ1Jc9TSjfXU1-1" value="MySQL 主服务器" style="shape=mxgraph.cisco.servers.storage_server;html=1;pointerEvents=1;dashed=0;fillColor=#036897;strokeColor=#ffffff;strokeWidth=2;verticalLabelPosition=bottom;verticalAlign=top;align=center;outlineConnect=0;" vertex="1" parent="1">
          <mxGeometry x="604" y="345.5" width="54" height="83" as="geometry"/>
        </mxCell>
        <mxCell id="kT1cKuFMZ1Jc9TSjfXU1-2" value="MySQL 从服务器" style="shape=mxgraph.cisco.servers.storage_server;html=1;pointerEvents=1;dashed=0;fillColor=#036897;strokeColor=#ffffff;strokeWidth=2;verticalLabelPosition=bottom;verticalAlign=top;align=center;outlineConnect=0;" vertex="1" parent="1">
          <mxGeometry x="732" y="337.5" width="54" height="83" as="geometry"/>
        </mxCell>
        <mxCell id="kT1cKuFMZ1Jc9TSjfXU1-3" value="视频监控" style="shape=mxgraph.cisco.computers_and_peripherals.video_camera;html=1;pointerEvents=1;dashed=0;fillColor=#036897;strokeColor=#ffffff;strokeWidth=2;verticalLabelPosition=bottom;verticalAlign=top;align=center;outlineConnect=0;" vertex="1" parent="1">
          <mxGeometry x="128" y="-5" width="60" height="80" as="geometry"/>
        </mxCell>
        <mxCell id="kT1cKuFMZ1Jc9TSjfXU1-4" value="专用网关" style="shape=mxgraph.cisco.hubs_and_gateways.vpn_gateway;html=1;pointerEvents=1;dashed=0;fillColor=#036897;strokeColor=#ffffff;strokeWidth=2;verticalLabelPosition=bottom;verticalAlign=top;align=center;outlineConnect=0;" vertex="1" parent="1">
          <mxGeometry x="250" y="64" width="91" height="48" as="geometry"/>
        </mxCell>
        <mxCell id="kT1cKuFMZ1Jc9TSjfXU1-5" value="防火墙" style="shape=mxgraph.cisco.security.firewall;html=1;pointerEvents=1;dashed=0;fillColor=#036897;strokeColor=#ffffff;strokeWidth=2;verticalLabelPosition=bottom;verticalAlign=top;align=center;outlineConnect=0;rotation=90;direction=north;" vertex="1" parent="1">
          <mxGeometry x="206" y="428.5" width="217" height="29" as="geometry"/>
        </mxCell>
        <mxCell id="kT1cKuFMZ1Jc9TSjfXU1-6" value="视频监控" style="shape=mxgraph.cisco.computers_and_peripherals.video_camera;html=1;pointerEvents=1;dashed=0;fillColor=#036897;strokeColor=#ffffff;strokeWidth=2;verticalLabelPosition=bottom;verticalAlign=top;align=center;outlineConnect=0;" vertex="1" parent="1">
          <mxGeometry x="129" y="110" width="60" height="80" as="geometry"/>
        </mxCell>
        <mxCell id="kT1cKuFMZ1Jc9TSjfXU1-7" value="手机客户端" style="shape=mxgraph.cisco.modems_and_phones.cell_phone;html=1;pointerEvents=1;dashed=0;fillColor=#d5e8d4;strokeColor=#82b366;strokeWidth=2;verticalLabelPosition=bottom;verticalAlign=top;align=center;outlineConnect=0;" vertex="1" parent="1">
          <mxGeometry x="537.5" y="640" width="34" height="58" as="geometry"/>
        </mxCell>
        <mxCell id="kT1cKuFMZ1Jc9TSjfXU1-8" value="手机客户端" style="shape=mxgraph.cisco.modems_and_phones.cell_phone;html=1;pointerEvents=1;dashed=0;fillColor=#d5e8d4;strokeColor=#82b366;strokeWidth=2;verticalLabelPosition=bottom;verticalAlign=top;align=center;outlineConnect=0;" vertex="1" parent="1">
          <mxGeometry x="631" y="640" width="34" height="58" as="geometry"/>
        </mxCell>
      </root>
    </mxGraphModel>
  </diagram>
</mxfile>
